<?xml version="1.0" encoding="UTF-8"?>
<svg width="233" height="88" viewBox="0 0 233 88" xmlns="http://www.w3.org/2000/svg">
    <path fill="#ffffff"
          d="M97.2,60 C80.6314567,60 67.2,46.5685433 67.2,30 C67.2,13.4314567 80.6314567,0 97.2,0 C113.768543,0 127.2,13.4314567 127.2,30 C127.2,46.5685433 113.768543,60 97.2,60 Z M97.2,48.4615385 C107.396027,48.4615385 115.661538,40.1960267 115.661538,30 C115.661538,19.8039733 107.396027,11.5384615 97.2,11.5384615 C87.0039733,11.5384615 78.7384615,19.8039733 78.7384615,30 C78.7384615,40.1960267 87.0039733,48.4615385 97.2,48.4615385 Z"/>
    <path fill="#ffffff"
          d="M202.8,60 C186.231457,60 172.8,46.5685433 172.8,30 C172.8,13.4314567 186.231457,0 202.8,0 C219.368543,0 232.8,13.4314567 232.8,30 C232.8,46.5685433 219.368543,60 202.8,60 Z M202.8,48.4615385 C212.996027,48.4615385 221.261538,40.1960267 221.261538,30 C221.261538,19.8039733 212.996027,11.5384615 202.8,11.5384615 C192.603973,11.5384615 184.338462,19.8039733 184.338462,30 C184.338462,40.1960267 192.603973,48.4615385 202.8,48.4615385 Z"/>
    <path fill="#ffffff"
          d="M168,47.7317647 L168,58.8 L134.4,58.8 L134.4,0 L145.751351,0 L145.751351,47.7317647 L168,47.7317647 Z"/>
    <path fill="#ffffff"
          d="M8.95428967,51.3793931 L17.1463231,43.2518639 C20.4701616,46.4764422 25.0032586,48.4615385 30,48.4615385 C38.6023363,48.4615385 45.8304913,42.577972 47.8799194,34.6153846 L25.8513459,34.6153846 L0.352837709,34.6153846 C0.120529555,33.1109082 0,31.5695297 0,30 C0,13.4314567 13.4314567,0 30,0 C38.1422591,0 45.5269047,3.243727 50.9321891,8.50943325 L42.7391417,16.6379684 C39.4260718,13.4784035 34.9395849,11.5384615 30,11.5384615 C21.3976637,11.5384615 14.1695087,17.422028 12.1200806,25.3846154 L33.9230769,25.3846154 L59.6471623,25.3846154 C59.8794704,26.8890918 60,28.4304703 60,30 C60,46.5685433 46.5685433,60 30,60 C21.8005928,60 14.3694714,56.7105797 8.95428967,51.3793931 Z"/>
    <path fill="#ffffff"
          d="M2.76503913,87 L1.39394535,87 L1.39394535,76.0083982 L8.06660176,76.0083982 L8.06660176,77.2423826 L2.76503913,77.2423826 L2.76503913,81.0205077 L7.63242206,81.0205077 L7.63242206,82.2392577 L2.76503913,82.2392577 L2.76503913,87 Z M16.8911954,85.9945312 C17.5665894,85.9945312 18.1264471,85.7977558 18.5707853,85.4041992 C19.0151235,85.0106425 19.2372892,84.5218779 19.2372892,83.9378906 L19.2372892,83.183789 L17.0283048,83.3285155 C15.8298613,83.4097659 15.2306485,83.8566365 15.2306485,84.6691406 C15.2306485,85.0855489 15.3880688,85.4105457 15.7029141,85.6441406 C16.0177594,85.8777355 16.4138492,85.9945312 16.8911954,85.9945312 Z M16.6474454,87.1447266 C15.8501758,87.1447266 15.1887566,86.9250999 14.663168,86.4858398 C14.1375794,86.0465798 13.8747891,85.4511756 13.8747891,84.6996093 C13.8747891,83.1964768 14.8726307,82.3865239 16.8683438,82.2697264 L19.2372892,82.1249999 L19.2372892,81.3785155 C19.2372892,80.3324165 18.6177641,79.8093748 17.3786954,79.8093748 C16.8861148,79.8093748 16.4773298,79.8982411 16.1523282,80.0759764 C15.8273266,80.2537117 15.6191255,80.5050763 15.5277188,80.830078 L14.2023281,80.830078 C14.2886567,80.1699184 14.6288877,79.6405292 15.2230313,79.2418943 C15.8171749,78.8432595 16.5509566,78.6439451 17.4243985,78.6439451 C18.4247942,78.6439451 19.195392,78.8864232 19.736215,79.3713865 C20.277038,79.8563499 20.5474455,80.5253862 20.5474455,81.3785155 L20.5474455,87 L19.2982267,87 L19.2982267,85.7888672 L19.1763517,85.7888672 C18.9122879,86.2255881 18.5619007,86.560741 18.1251798,86.7943359 C17.6884589,87.0279309 17.1958856,87.1447266 16.6474454,87.1447266 Z M27.5210625,81.035742 C27.5210625,80.3552699 27.8130518,79.7865255 28.3970391,79.329492 C28.9810264,78.8724585 29.7097301,78.6439451 30.583172,78.6439451 C31.4464576,78.6439451 32.1561184,78.84199 32.7121759,79.2380857 C33.2682334,79.6341815 33.5894216,80.1699183 33.6757502,80.8453123 L32.3808283,80.8453123 C32.2944997,80.5152326 32.0964548,80.2511727 31.7866876,80.0531248 C31.4769204,79.855077 31.0732135,79.7560545 30.5755548,79.7560545 C30.0880523,79.7560545 29.6767283,79.8690417 29.3415704,80.0950194 C29.0064124,80.3209971 28.838836,80.6167949 28.838836,80.9824217 C28.838836,81.26172 28.9556317,81.4940419 29.1892266,81.6793944 C29.4228215,81.8647469 29.7808258,82.0158196 30.2632501,82.1326171 L31.5277032,82.4373046 C32.2995821,82.6251961 32.874674,82.8956036 33.2529962,83.2485351 C33.6313185,83.6014665 33.8204767,84.0724579 33.8204767,84.6615234 C33.8204767,85.3978552 33.5056361,85.9957985 32.8759455,86.4553711 C32.2462548,86.9149437 31.4642313,87.1447266 30.5298517,87.1447266 C29.6157846,87.1447266 28.8667686,86.9416036 28.2827813,86.5353516 C27.698794,86.1290995 27.3712582,85.5857456 27.3001641,84.9052734 L28.6484063,84.9052734 C28.7601256,85.2505876 28.9784828,85.5260732 29.3034844,85.7317383 C29.6284861,85.9374033 30.0525053,86.0402344 30.5755548,86.0402344 C31.1290732,86.0402344 31.5835608,85.9208996 31.9390314,85.6822265 C32.2945019,85.4435535 32.4722345,85.13633 32.4722345,84.7605468 C32.4722345,84.4761704 32.3643254,84.2387704 32.148504,84.0483398 C31.9326826,83.8579091 31.6064164,83.7093755 31.1696954,83.6027343 L29.7605157,83.2599608 C28.993715,83.0720693 28.4287792,82.8029313 28.0656914,82.452539 C27.7026037,82.1021466 27.5210625,81.6298857 27.5210625,81.035742 Z M41.0911641,76.6634763 L42.4013204,76.6634763 L42.4013204,78.7886717 L44.2294454,78.7886717 L44.2294454,79.8855467 L42.4013204,79.8855467 L42.4013204,84.5320312 C42.4013204,85.0144555 42.4978038,85.3648426 42.6907735,85.5832031 C42.8837432,85.8015636 43.1935057,85.9107422 43.6200704,85.9107422 C43.7368679,85.9107422 43.8371598,85.9082031 43.9209493,85.903125 C44.0047388,85.8980468 44.1075698,85.8904297 44.2294454,85.8802734 L44.2294454,86.9847656 C44.1024916,87.0101564 43.9755398,87.0291992 43.848586,87.0418945 C43.7216323,87.0545899 43.5921414,87.0609375 43.4601095,87.0609375 C42.6171365,87.0609375 42.0115761,86.890822 41.6434102,86.5505859 C41.2752443,86.2103498 41.0911641,85.6492226 41.0911641,84.8671874 L41.0911641,79.8855467 L39.7657734,79.8855467 L39.7657734,78.7886717 L41.0911641,78.7886717 L41.0911641,76.6634763 Z M54.1128281,79.8017576 C53.4577467,79.8017576 52.9194708,80.0226539 52.4979843,80.464453 C52.0764979,80.9062521 51.8403674,81.4902306 51.7895859,82.2164061 L56.3141954,82.2164061 C56.2989609,81.4902306 56.0907599,80.9062521 55.689586,80.464453 C55.2884121,80.0226539 54.7628314,79.8017576 54.1128281,79.8017576 Z M56.2761094,84.8748046 L57.5862657,84.8748046 C57.3882178,85.5806676 56.98705,86.1354472 56.3827501,86.5391601 C55.7784502,86.9428731 55.0268952,87.1447266 54.1280625,87.1447266 C52.9905568,87.1447266 52.0891986,86.7626015 51.4239609,85.9983398 C50.7587232,85.2340782 50.4261093,84.2019596 50.4261093,82.901953 C50.4261093,81.6121028 50.7612622,80.5799842 51.4315781,79.8055662 C52.1018939,79.0311483 53.0007131,78.6439451 54.1280625,78.6439451 C55.2350993,78.6439451 56.1059891,79.013375 56.7407579,79.7522459 C57.3755267,80.4911168 57.6929063,81.4978451 57.6929063,82.7724608 L57.6929063,83.2751952 L51.7895859,83.2751952 L51.7895859,83.3361327 C51.8251329,84.1486368 52.0549158,84.7935522 52.4789414,85.2708984 C52.9029669,85.7482445 53.4628246,85.986914 54.1585313,85.986914 C54.6866589,85.986914 55.1284514,85.8917001 55.4839219,85.7012695 C55.8393925,85.5108389 56.1034523,85.2353533 56.2761094,84.8748046 Z M64.3008984,81.035742 C64.3008984,80.3552699 64.5928876,79.7865255 65.176875,79.329492 C65.7608623,78.8724585 66.4895659,78.6439451 67.3630078,78.6439451 C68.2262934,78.6439451 68.9359543,78.84199 69.4920118,79.2380857 C70.0480693,79.6341815 70.3692575,80.1699183 70.455586,80.8453123 L69.1606641,80.8453123 C69.0743356,80.5152326 68.8762907,80.2511727 68.5665235,80.0531248 C68.2567563,79.855077 67.8530494,79.7560545 67.3553906,79.7560545 C66.8678882,79.7560545 66.4565642,79.8690417 66.1214062,80.0950194 C65.7862483,80.3209971 65.6186718,80.6167949 65.6186718,80.9824217 C65.6186718,81.26172 65.7354675,81.4940419 65.9690625,81.6793944 C66.2026574,81.8647469 66.5606616,82.0158196 67.0430859,82.1326171 L68.3075391,82.4373046 C69.079418,82.6251961 69.6545099,82.8956036 70.0328321,83.2485351 C70.4111543,83.6014665 70.6003126,84.0724579 70.6003126,84.6615234 C70.6003126,85.3978552 70.285472,85.9957985 69.6557813,86.4553711 C69.0260906,86.9149437 68.2440672,87.1447266 67.3096875,87.1447266 C66.3956204,87.1447266 65.6466044,86.9416036 65.0626171,86.5353516 C64.4786298,86.1290995 64.151094,85.5857456 64.0799999,84.9052734 L65.4282421,84.9052734 C65.5399615,85.2505876 65.7583187,85.5260732 66.0833203,85.7317383 C66.4083219,85.9374033 66.8323411,86.0402344 67.3553906,86.0402344 C67.908909,86.0402344 68.3633967,85.9208996 68.7188672,85.6822265 C69.0743378,85.4435535 69.2520704,85.13633 69.2520704,84.7605468 C69.2520704,84.4761704 69.1441613,84.2387704 68.9283399,84.0483398 C68.7125185,83.8579091 68.3862522,83.7093755 67.9495313,83.6027343 L66.5403515,83.2599608 C65.7735508,83.0720693 65.208615,82.8029313 64.8455273,82.452539 C64.4824395,82.1021466 64.3008984,81.6298857 64.3008984,81.035742 Z M77.8709999,76.6634763 L79.1811562,76.6634763 L79.1811562,78.7886717 L81.0092813,78.7886717 L81.0092813,79.8855467 L79.1811562,79.8855467 L79.1811562,84.5320312 C79.1811562,85.0144555 79.2776396,85.3648426 79.4706093,85.5832031 C79.6635791,85.8015636 79.9733416,85.9107422 80.3999062,85.9107422 C80.5167037,85.9107422 80.6169957,85.9082031 80.7007852,85.903125 C80.7845746,85.8980468 80.8874056,85.8904297 81.0092813,85.8802734 L81.0092813,86.9847656 C80.8823275,87.0101564 80.7553756,87.0291992 80.6284219,87.0418945 C80.5014681,87.0545899 80.3719772,87.0609375 80.2399453,87.0609375 C79.3969723,87.0609375 78.791412,86.890822 78.423246,86.5505859 C78.0550801,86.2103498 77.8709999,85.6492226 77.8709999,84.8671874 L77.8709999,79.8855467 L76.5456093,79.8855467 L76.5456093,78.7886717 L77.8709999,78.7886717 L77.8709999,76.6634763 Z M110.476617,87 L106.18814,87 L106.18814,76.0083982 L110.392828,76.0083982 C111.40338,76.0083982 112.198098,76.2546848 112.777008,76.7472654 C113.355917,77.239846 113.645367,77.9076128 113.645367,78.7505857 C113.645367,79.3193386 113.461287,79.8322241 113.093121,80.2892576 C112.724955,80.7462912 112.276815,81.0230462 111.748687,81.1195311 L111.748687,81.2414061 C112.500254,81.337891 113.096927,81.6260717 113.538726,82.1059569 C113.980525,82.5858421 114.201422,83.1888635 114.201422,83.915039 C114.201422,84.8798876 113.872616,85.6352511 113.214996,86.1811523 C112.557375,86.7270535 111.644592,87 110.476617,87 Z M107.559234,77.219531 L107.559234,80.7462889 L109.752984,80.7462889 C110.585801,80.7462889 111.211673,80.5990248 111.630621,80.304492 C112.049568,80.0099593 112.259039,79.5707059 112.259039,78.9867186 C112.259039,78.428122 112.069881,77.9939466 111.691558,77.6841795 C111.313236,77.3744123 110.783847,77.219531 110.103375,77.219531 L107.559234,77.219531 Z M107.559234,85.7888672 L110.270953,85.7888672 C111.098691,85.7888672 111.725834,85.6238297 112.152398,85.29375 C112.578963,84.9636702 112.792242,84.4812531 112.792242,83.8464843 C112.792242,83.2117155 112.570076,82.733107 112.125738,82.4106444 C111.6814,82.0881819 111.019981,81.926953 110.141461,81.926953 L107.559234,81.926953 L107.559234,85.7888672 Z M121.09125,87 L121.09125,75.5285153 L122.401406,75.5285153 L122.401406,87 L121.09125,87 Z M133.061742,87.1447266 C131.893767,87.1447266 130.970827,86.7651405 130.292894,86.005957 C129.614961,85.2467735 129.276,84.2095768 129.276,82.8943358 C129.276,81.5740167 129.614961,80.5355505 130.292894,79.7789061 C130.970827,79.0222616 131.893767,78.6439451 133.061742,78.6439451 C134.229716,78.6439451 135.152656,79.0222616 135.83059,79.7789061 C136.508523,80.5355505 136.847484,81.5740167 136.847484,82.8943358 C136.847484,84.2095768 136.508523,85.2467735 135.83059,86.005957 C135.152656,86.7651405 134.229716,87.1447266 133.061742,87.1447266 Z M133.061742,85.9640625 C133.838699,85.9640625 134.437912,85.6949245 134.859398,85.1566406 C135.280885,84.6183566 135.491625,83.8642626 135.491625,82.8943358 C135.491625,81.9193309 135.280885,81.1639674 134.859398,80.6282225 C134.437912,80.0924776 133.838699,79.8246092 133.061742,79.8246092 C132.284785,79.8246092 131.685572,80.0924776 131.264086,80.6282225 C130.842599,81.1639674 130.631859,81.9193309 130.631859,82.8943358 C130.631859,83.8642626 130.842599,84.6183566 131.264086,85.1566406 C131.685572,85.6949245 132.284785,85.9640625 133.061742,85.9640625 Z M150.440437,81.3023436 L149.115047,81.3023436 C149.008405,80.8960916 148.776084,80.5482435 148.418074,80.2587889 C148.060064,79.9693343 147.586534,79.8246092 146.997468,79.8246092 C146.261137,79.8246092 145.675889,80.0988252 145.241707,80.6472655 C144.807525,81.1957057 144.590437,81.9345655 144.590437,82.8638671 C144.590437,83.8134812 144.808794,84.5675753 145.245515,85.1261718 C145.682236,85.6847684 146.266215,85.9640625 146.997468,85.9640625 C147.550987,85.9640625 148.011822,85.8396497 148.379988,85.5908203 C148.748154,85.3419909 148.993171,84.9865257 149.115047,84.524414 L150.440437,84.524414 C150.32364,85.2759803 149.968175,85.9005834 149.374031,86.3982422 C148.779887,86.8959009 147.990247,87.1447266 147.005086,87.1447266 C145.857424,87.1447266 144.942101,86.7575234 144.259089,85.9831054 C143.576078,85.2086875 143.234578,84.1689518 143.234578,82.8638671 C143.234578,81.5841732 143.574809,80.5609412 144.255281,79.7941404 C144.935753,79.0273397 145.849806,78.6439451 146.997468,78.6439451 C147.997864,78.6439451 148.793852,78.9041964 149.385457,79.4247068 C149.977061,79.9452173 150.328718,80.5710899 150.440437,81.3023436 Z M158.625187,82.3763671 L158.987004,82.0145507 C159.228216,81.7733385 159.525283,81.4737321 159.878214,81.1157225 C160.231146,80.7577129 160.584072,80.4009782 160.937004,80.0455076 C161.289935,79.6900371 161.587002,79.3917002 161.828215,79.1504881 L162.190031,78.7886717 L163.797258,78.7886717 L160.262882,82.3078124 L164.03339,87 L162.365226,87 L159.287882,83.1533202 L158.503312,83.8845702 L158.503312,87 L157.193156,87 L157.193156,75.5285153 L158.503312,75.5285153 L158.503312,82.3763671 L158.625187,82.3763671 Z M176.74275,81.3023436 L175.417359,81.3023436 C175.310718,80.8960916 175.078396,80.5482435 174.720386,80.2587889 C174.362377,79.9693343 173.888846,79.8246092 173.299781,79.8246092 C172.563449,79.8246092 171.978201,80.0988252 171.544019,80.6472655 C171.109837,81.1957057 170.89275,81.9345655 170.89275,82.8638671 C170.89275,83.8134812 171.111107,84.5675753 171.547828,85.1261718 C171.984549,85.6847684 172.568527,85.9640625 173.299781,85.9640625 C173.853299,85.9640625 174.314135,85.8396497 174.6823,85.5908203 C175.050466,85.3419909 175.295483,84.9865257 175.417359,84.524414 L176.74275,84.524414 C176.625952,85.2759803 176.270487,85.9005834 175.676343,86.3982422 C175.0822,86.8959009 174.292559,87.1447266 173.307398,87.1447266 C172.159736,87.1447266 171.244413,86.7575234 170.561402,85.9831054 C169.878391,85.2086875 169.53689,84.1689518 169.53689,82.8638671 C169.53689,81.5841732 169.877121,80.5609412 170.557593,79.7941404 C171.238065,79.0273397 172.152119,78.6439451 173.299781,78.6439451 C174.300177,78.6439451 175.096165,78.9041964 175.687769,79.4247068 C176.279374,79.9452173 176.63103,80.5710899 176.74275,81.3023436 Z M183.495468,87 L183.495468,75.5285153 L184.805625,75.5285153 L184.805625,80.0835936 L184.9275,80.0835936 C185.135704,79.6316382 185.451814,79.278712 185.875839,79.0248045 C186.299865,78.770897 186.826715,78.6439451 187.456406,78.6439451 C188.32477,78.6439451 189.014118,78.9092745 189.524472,79.4399412 C190.034826,79.970608 190.29,80.7183544 190.29,81.683203 L190.29,87 L188.979843,87 L188.979843,82.0031249 C188.979843,81.2769494 188.818615,80.7323259 188.496152,80.3692381 C188.173689,80.0061504 187.702698,79.8246092 187.083164,79.8246092 C186.346832,79.8246092 185.783166,80.0366188 185.392148,80.4606444 C185.00113,80.8846699 184.805625,81.4445276 184.805625,82.1402343 L184.805625,87 L183.495468,87 Z M199.952484,85.9945312 C200.627878,85.9945312 201.187736,85.7977558 201.632074,85.4041992 C202.076412,85.0106425 202.298578,84.5218779 202.298578,83.9378906 L202.298578,83.183789 L200.089593,83.3285155 C198.89115,83.4097659 198.291937,83.8566365 198.291937,84.6691406 C198.291937,85.0855489 198.449357,85.4105457 198.764203,85.6441406 C199.079048,85.8777355 199.475138,85.9945312 199.952484,85.9945312 Z M199.708734,87.1447266 C198.911464,87.1447266 198.250045,86.9250999 197.724457,86.4858398 C197.198868,86.0465798 196.936078,85.4511756 196.936078,84.6996093 C196.936078,83.1964768 197.933919,82.3865239 199.929632,82.2697264 L202.298578,82.1249999 L202.298578,81.3785155 C202.298578,80.3324165 201.679053,79.8093748 200.439984,79.8093748 C199.947403,79.8093748 199.538618,79.8982411 199.213617,80.0759764 C198.888615,80.2537117 198.680414,80.5050763 198.589007,80.830078 L197.263617,80.830078 C197.349945,80.1699184 197.690176,79.6405292 198.28432,79.2418943 C198.878464,78.8432595 199.612245,78.6439451 200.485687,78.6439451 C201.486083,78.6439451 202.256681,78.8864232 202.797504,79.3713865 C203.338327,79.8563499 203.608734,80.5253862 203.608734,81.3785155 L203.608734,87 L202.359515,87 L202.359515,85.7888672 L202.23764,85.7888672 C201.973576,86.2255881 201.623189,86.560741 201.186468,86.7943359 C200.749747,87.0279309 200.257174,87.1447266 199.708734,87.1447266 Z M210.80325,87 L210.80325,78.7886717 L212.113406,78.7886717 L212.113406,87 L210.80325,87 Z M211.458328,77.1205076 C211.209498,77.1205076 210.99495,77.0303718 210.814675,76.8500974 C210.634401,76.6698231 210.544265,76.4552744 210.544265,76.206445 C210.544265,75.9525375 210.634401,75.7367194 210.814675,75.5589841 C210.99495,75.3812488 211.209498,75.2923825 211.458328,75.2923825 C211.712235,75.2923825 211.928053,75.3812488 212.105789,75.5589841 C212.283524,75.7367194 212.37239,75.9525375 212.37239,76.206445 C212.37239,76.4552744 212.283524,76.6698231 212.105789,76.8500974 C211.928053,77.0303718 211.712235,77.1205076 211.458328,77.1205076 Z M219.353624,87 L219.353624,78.7886717 L220.602843,78.7886717 L220.602843,80.0835936 L220.724718,80.0835936 C220.932922,79.6316382 221.238876,79.278712 221.642589,79.0248045 C222.046302,78.770897 222.562996,78.6439451 223.192687,78.6439451 C224.11691,78.6439451 224.826571,78.9067355 225.321691,79.432324 C225.816811,79.9579126 226.064367,80.7081981 226.064367,81.683203 L226.064367,87 L224.754211,87 L224.754211,82.0031249 C224.754211,81.2617149 224.595521,80.7132829 224.278136,80.3578123 C223.960752,80.0023418 223.474526,79.8246092 222.819445,79.8246092 C222.164363,79.8246092 221.641322,80.0302712 221.250304,80.4416014 C220.859287,80.8529316 220.663781,81.4191369 220.663781,82.1402343 L220.663781,87 L219.353624,87 Z"/>
</svg>