<?xml version="1.0" encoding="utf-8"?>
<svg version="1.0" id="Layer_1" xmlns="http://www.w3.org/2000/svg"  x="0px" y="0px" viewBox="0 0 24 24" xml:space="preserve">
	<circle fill="#CA8959" cx="12" cy="12" r="12"/>
	<path fill="#ffffff" d="M14.6,7c0.8-0.1,2.9-0.1,3.7,2.7c0.5,1.7,0.3,3.6,0,5.3h0.5c0.1,0,0.2,0.1,0.2,0.2v0.6c0,0.1-0.1,0.2-0.2,0.2
		h-1.9c-0.1,0-0.2-0.1-0.2-0.2v-0.6c0-0.1,0.1-0.2,0.2-0.2h0.5c0.3-0.9,0.3-2.8-0.1-4.2C17,9.5,16,8.4,14.8,8.4
		c-0.6,0-2.4,0.1-2.7,4.6v0.2h-0.4V13C11.4,8.5,9.6,8.4,9,8.4c-1.2,0-2.2,1.1-2.5,2.4c-0.4,1.3-0.4,3.3-0.1,4.2h0.5
		c0.1,0,0.2,0.1,0.2,0.2v0.6C7.1,15.9,7,16,6.9,16H5.2C5.1,16,5,15.9,5,15.8v-0.6C5,15.1,5.1,15,5.2,15h0.5c-0.3-1.7-0.5-3.5,0-5.3
		C6.5,6.9,8.6,6.9,9.4,7c1.5,0.3,2.2,1.3,2.6,2.6C12.4,8.4,13.1,7.3,14.6,7z"/>
	<path fill="#ffffff" d="M18.8,16.5h-1.9c-0.3,0-0.7-0.3-0.7-0.7v-0.6c0-0.3,0.3-0.7,0.7-0.7h0.2c0.2-0.9,0.2-2.4-0.2-3.6
		c-0.3-1.2-1.1-2.1-2.1-2.1c-1.3,0-2.1,1.4-2.3,4.2l0,0.2c0,0.2-0.2,0.5-0.5,0.5h-0.4c-0.2,0-0.5-0.2-0.5-0.5V13
		c-0.2-2.7-0.9-4.1-2.3-4.1c-0.9,0-1.8,0.9-2.1,2.1c-0.3,1.1-0.4,2.7-0.2,3.6h0.2c0.3,0,0.7,0.3,0.7,0.7v0.6c0,0.3-0.3,0.7-0.7,0.7
		H5.2c-0.3,0-0.7-0.3-0.7-0.7v-0.6c0-0.3,0.3-0.6,0.6-0.6c-0.3-1.6-0.4-3.3,0.1-5c0.9-3.2,3.4-3.1,4.2-3c1.4,0.3,2.1,1.1,2.6,1.9
		c0.6-1,1.4-1.7,2.5-1.9c0,0,0,0,0,0c0.8-0.1,3.3-0.2,4.2,3c0.5,1.6,0.3,3.5,0.1,5c0.3,0,0.6,0.3,0.6,0.6v0.6
		C19.5,16.1,19.1,16.5,18.8,16.5z M17.2,15.5h1.4v-0.1h-0.3c-0.1,0-0.3-0.1-0.3-0.2c-0.1-0.1-0.1-0.1-0.1-0.2c0,0,0,0.1,0,0.1
		c-0.1,0.2-0.2,0.3-0.4,0.3L17.2,15.5L17.2,15.5z M5.5,15.5h1.2v-0.1H6.4c-0.1,0-0.3-0.1-0.4-0.2c0,0,0,0,0,0
		c-0.1,0.1-0.2,0.2-0.3,0.2L5.5,15.5L5.5,15.5z M14.8,7.9c1.3,0,2.6,1.2,2.9,2.7c0.2,0.8,0.4,1.9,0.3,2.8c0.1-1.2,0.2-2.5-0.2-3.7
		c-0.7-2.3-2.3-2.5-3.2-2.4c-0.9,0.2-1.5,0.7-2,1.7C13.2,8.3,13.9,7.9,14.8,7.9z M8.9,7.4C8,7.4,6.7,7.8,6.1,9.8
		C6,10.4,5.9,11,5.9,11.6c0.1-0.3,0.1-0.7,0.2-1C6.4,9.1,7.7,7.9,9,7.9c1.5,0,2.5,1.1,2.9,3.2c0.1-0.4,0.2-0.8,0.3-1.1
		c-0.1,0-0.1,0.1-0.2,0.1c-0.2,0-0.4-0.1-0.4-0.3c-0.4-1.4-1.1-2.1-2.3-2.3C9.2,7.4,9.1,7.4,8.9,7.4z"/>
</svg>
