<?xml version="1.0" encoding="utf-8"?>
<svg version="1.1" id="Layer_1" xmlns="http://www.w3.org/2000/svg" x="0px" y="0px" viewBox="0 0 20 20">
    <path fill="#17B978" d="M10,0C4.5,0,0,4.5,0,10s4.5,10,10,10s10-4.5,10-10S15.5,0,10,0z M15.1,7.6l-6.6,6.5c-0.1,0.1-0.2,0.1-0.3,0.1
	c-0.1,0-0.2,0-0.3-0.1l-3.8-3.7C4,10.3,4,10.2,4,10.1C4,10,4,9.9,4.1,9.8L5,8.9c0.1,0,0.2-0.1,0.3-0.1c0.1,0,0.2,0.1,0.3,0.1
	l2.6,2.5l5.4-5.3C13.7,6,13.8,6,13.9,6c0.1,0,0.2,0.1,0.3,0.1L15.1,7c0.1,0.1,0.1,0.2,0.1,0.3C15.2,7.4,15.2,7.5,15.1,7.6z"/>
</svg>
