<?xml version="1.0" encoding="UTF-8"?>
<svg width="12" height="18" viewBox="0 0 12 18" xmlns="http://www.w3.org/2000/svg">
    <path fill="#141a22" d="M28.5070142,26.024 C28.7955913,26.184002 28.959921,26.431997 29.0000002,26.768 C29.0400793,27.104003 28.9398799,27.392 28.699399,27.632 L21.1723449,34.736 C20.9959911,34.9120009 20.7715443,35 20.4989982,35 C20.1462907,35 19.8697406,34.8480015 19.6693388,34.544 C19.468937,34.2399986 19.4328652,33.9280016 19.5611224,33.608 L21.7254511,28.424 L17.4929861,25.976 C17.2204397,25.815998 17.0601206,25.568003 17.0120242,25.232 C16.9639278,24.895997 17.0601192,24.608 17.3006014,24.368 L24.8276555,17.264 C25.0360743,17.087999 25.2605212,17 25.5010022,17 C25.7735483,17 26.0100192,17.099999 26.210421,17.3 C26.4108228,17.500001 26.5110222,17.735999 26.5110222,18.008 C26.5110222,18.168002 26.4789571,18.311999 26.4148298,18.44 L24.2745493,23.576 L28.5070142,26.024 Z"/>
</svg>