<?xml version="1.0" encoding="utf-8"?>
<svg version="1.1" id="Layer_1" xmlns="http://www.w3.org/2000/svg" x="0px" y="0px" viewBox="0 0 53 53">
    <path fill="#ffffff" d="M45.3,37.6c-0.2,0-0.3,0.1-0.3,0.3s0.1,0.3,0.3,0.3s0.3-0.1,0.3-0.3S45.6,37.6,45.3,37.6z
	 M38.6,44.7c-0.4,0-0.7,0.2-0.7,0.6s0.2,0.6,0.7,0.6s0.7-0.2,0.7-0.7C39.2,44.9,39,44.7,38.6,44.7z M29.2,48.1c-0.7,0-1,0.3-1,0.9
	c0,0.6,0.3,0.9,1,0.9s1-0.3,1-0.9C30.2,48.4,29.9,48.1,29.2,48.1z M18.2,47.7c-0.2,0.2-0.3,0.5-0.3,0.9s0.1,0.7,0.4,0.9
	c0.3,0.3,0.6,0.4,0.9,0.4s0.6-0.1,0.9-0.4c0.3-0.3,0.4-0.6,0.4-0.9c0-0.4-0.1-0.7-0.4-0.9c-0.3-0.3-0.6-0.4-0.9-0.4
	C18.8,47.2,18.5,47.4,18.2,47.7z M9.1,42.8c-0.3,0.3-0.4,0.7-0.4,1.1s0.2,0.8,0.5,1.1s0.7,0.4,1.2,0.4c0.4,0,0.8-0.1,1.1-0.4
	c0.3-0.3,0.4-0.7,0.4-1.1s-0.1-0.8-0.4-1.2c-0.3-0.3-0.7-0.5-1.1-0.5C9.9,42.2,9.5,42.4,9.1,42.8z M2.9,34.4
	c-0.4,0.4-0.6,0.8-0.6,1.4c0,0.6,0.2,1,0.6,1.4s0.8,0.6,1.4,0.6s1-0.2,1.4-0.6c0.4-0.4,0.6-0.9,0.6-1.4s-0.2-1-0.6-1.3
	c-0.4-0.4-0.8-0.6-1.4-0.6C3.7,33.9,3.3,34.1,2.9,34.4z M0.6,24.3c-0.4,0.4-0.6,1-0.6,1.6s0.2,1.2,0.6,1.6s0.9,0.7,1.6,0.7
	c0.6,0,1.2-0.2,1.6-0.7s0.7-1,0.7-1.6s-0.2-1.2-0.7-1.6s-1-0.7-1.6-0.7C1.5,23.7,1,23.9,0.6,24.3z M2.7,14.3
	c-0.5,0.5-0.8,1.1-0.8,1.8s0.3,1.3,0.8,1.8s1.1,0.8,1.8,0.8s1.3-0.3,1.8-0.8s0.8-1.1,0.8-1.8c0-0.7-0.3-1.3-0.8-1.8
	c-0.5-0.5-1.1-0.8-1.8-0.8S3.2,13.8,2.7,14.3z M8.7,6.3c-0.6,0.6-0.9,1.2-0.9,2s0.3,1.5,0.9,2.1c0.6,0.6,1.3,0.9,2.1,0.9
	c0.8,0,1.5-0.3,2.1-0.9c0.6-0.6,0.9-1.3,0.9-2.1s-0.3-1.4-0.9-2c-0.6-0.6-1.3-0.8-2.1-0.8C9.9,5.4,9.3,5.7,8.7,6.3z M17.3,1.6
	c-0.6,0.6-0.9,1.3-0.9,2.2s0.3,1.6,0.9,2.3C17.9,6.7,18.7,7,19.6,7s1.6-0.3,2.3-0.9c0.6-0.6,0.9-1.4,0.9-2.3s-0.2-1.7-0.9-2.3
	c-0.6-0.6-1.4-0.9-2.3-0.9C18.8,0.6,18,0.9,17.3,1.6z M27.2,1c-0.7,0.7-1,1.5-1,2.5s0.4,1.8,1.1,2.5s1.5,1,2.5,1s1.8-0.3,2.5-1
	c0.7-0.7,1.1-1.5,1.1-2.6c0-1-0.4-1.8-1.1-2.4s-1.5-1-2.5-1S28,0.3,27.2,1z M36.2,4.8c-0.7,0.7-1.1,1.6-1.1,2.7s0.4,2,1.1,2.7
	c0.7,0.7,1.6,1.1,2.7,1.1c1.1,0,2-0.4,2.8-1.1c0.8-0.7,1.2-1.6,1.2-2.7s-0.4-2-1.2-2.7S40,3.7,38.9,3.7C37.9,3.7,37,4,36.2,4.8z
	 M42.7,12.1c-0.8,0.8-1.2,1.8-1.2,2.9s0.4,2.1,1.2,2.9s1.8,1.2,2.9,1.2c1.1,0,2.1-0.4,2.9-1.2s1.2-1.8,1.2-3c0-1.1-0.4-2.1-1.2-2.9
	c-0.8-0.8-1.8-1.2-2.9-1.2C44.5,10.9,43.5,11.3,42.7,12.1z M45.2,21.6c-0.8,0.9-1.2,2-1.2,3.2s0.4,2.3,1.3,3.2
	c0.9,0.9,1.9,1.3,3.2,1.3s2.3-0.4,3.2-1.3s1.3-2,1.3-3.2s-0.4-2.3-1.3-3.2c-0.9-0.9-2-1.3-3.2-1.3S46.1,20.7,45.2,21.6z"/>
</svg>
