<?xml version="1.0" encoding="utf-8"?>
<svg version="1.0" id="Layer_1" xmlns="http://www.w3.org/2000/svg" x="0px" y="0px" viewBox="0 0 20 20">
    <path fill="#006dff" d="M18.2,15H15v3.2c0.3-0.1,0.4-0.2,0.5-0.3l2.4-2.4C18,15.4,18.1,15.3,18.2,15z M14.6,13.3h3.8
	V1.7H1.7v16.7h11.7v-3.7c0-0.3,0.1-0.6,0.4-0.9C13.9,13.5,14.2,13.3,14.6,13.3z M20,1.2v13.3c0,0.3-0.1,0.7-0.3,1.1
	c-0.2,0.4-0.4,0.7-0.6,1l-2.4,2.4c-0.2,0.2-0.6,0.5-1,0.6c-0.4,0.2-0.8,0.3-1.1,0.3H1.2c-0.3,0-0.6-0.1-0.9-0.4
	C0.1,19.4,0,19.1,0,18.8V1.2c0-0.3,0.1-0.6,0.4-0.9C0.6,0.1,0.9,0,1.2,0h17.5c0.3,0,0.6,0.1,0.9,0.4C19.9,0.6,20,0.9,20,1.2z"/>
</svg>
