<?xml version="1.0" encoding="utf-8"?>
<svg version="1.0" id="Layer_1" xmlns="http://www.w3.org/2000/svg" x="0px" y="0px" viewBox="0 0 78 36">
    <path fill="#006dff" d="M32.5,20c-5.5,0-10-4.5-10-10S27,0,32.5,0s10,4.5,10,10S38.1,20,32.5,20z M32.5,16.2c3.4,0,6.2-2.8,6.2-6.2
	S36,3.8,32.5,3.8s-6.2,2.8-6.2,6.2S29.1,16.2,32.5,16.2z"/>
    <path fill="#006dff" d="M68,20c-5.5,0-10-4.5-10-10S62.5,0,68,0c5.5,0,10,4.5,10,10S73.6,20,68,20z M68,16.2c3.4,0,6.2-2.8,6.2-6.2
	S71.5,3.8,68,3.8c-3.4,0-6.2,2.8-6.2,6.2S64.6,16.2,68,16.2z"/>
    <path fill="#006dff" d="M56.2,15.9v3.7H45V0h3.8v15.9H56.2z"/>
    <path fill="#006dff" d="M3,17.1l2.7-2.7c1.1,1.1,2.6,1.7,4.3,1.7c2.9,0,5.3-2,6-4.6H8.7H0.1C0,11,0,10.5,0,10C0,4.5,4.5,0,10,0
	c2.7,0,5.1,1,6.9,2.7l-2.8,2.6c-1.1-0.9-2.5-1.5-4-1.5c-2.6,0-4.9,1.6-5.8,3.9h7.1h8.5c0.2,0.7,0.2,1.4,0.2,2.2c0,5.5-4.5,10-10,10
	C7.3,20,4.8,18.9,3,17.1z"/>
    <path fill="#006dff" d="M19.8,33c0,0.6-0.2,1.1-0.7,1.5c-0.4,0.4-1,0.6-1.6,0.6c-0.7,0-1.2-0.2-1.6-0.6
	c-0.4-0.4-0.6-0.9-0.7-1.6h0.7c0,1,0.6,1.5,1.5,1.5c0.4,0,0.8-0.1,1-0.4c0.3-0.3,0.4-0.6,0.4-1c0-0.4-0.2-0.8-0.5-1.1
	c-0.1-0.1-0.3-0.2-0.5-0.3c-0.2-0.1-0.4-0.1-0.6-0.2c-0.3-0.1-0.6-0.2-0.7-0.3c-0.2-0.1-0.5-0.2-0.6-0.4c-0.4-0.3-0.6-0.8-0.6-1.3
	c0-0.6,0.2-1.1,0.6-1.4c0.4-0.4,0.9-0.6,1.5-0.6c0.6,0,1.1,0.2,1.5,0.6c0.4,0.4,0.6,0.9,0.6,1.4h-0.7c0-0.4-0.1-0.7-0.4-0.9
	c-0.3-0.3-0.6-0.4-0.9-0.4c-0.4,0-0.7,0.1-0.9,0.4c-0.3,0.2-0.4,0.6-0.4,0.9c0,0.4,0.2,0.8,0.6,1c0.1,0.1,0.3,0.2,0.6,0.2l0.6,0.2
	c0.6,0.2,1,0.4,1.3,0.8C19.7,31.9,19.8,32.4,19.8,33z M23.8,35v-7.4h0.7V35H23.8z M36.6,31.6c-0.1,1-0.5,1.8-1.3,2.5
	c-0.8,0.7-1.6,1-2.7,1c-1.1,0-2-0.4-2.8-1.1c-0.8-0.8-1.2-1.7-1.2-2.7c0-1.1,0.4-2,1.2-2.7c0.8-0.7,1.7-1.1,2.8-1.1
	c1.2,0,2.2,0.5,3,1.4c0.2,0.2,0.4,0.5,0.5,0.7h-0.9c-0.3-0.4-0.6-0.8-1.1-1.1c-0.5-0.3-1-0.4-1.5-0.4c-0.9,0-1.6,0.3-2.3,0.9
	c-0.6,0.6-1,1.4-1,2.2c0,0.9,0.3,1.6,1,2.2c0.6,0.6,1.4,0.9,2.3,0.9c0.7,0,1.3-0.2,1.9-0.6c0.6-0.4,1-0.9,1.1-1.6h-4.1v-0.7H36.6z
	 M46,35l-4.4-6.5h0V35h-0.7v-7.4h1l4.1,6.1h0v-6.1h0.7V35H46z M51.2,35v-7.4h4v0.7h-3.3v2.7h3.2v0.7h-3.2v2.7h3.3V35H51.2z M64.5,30
	c0,0.6-0.2,1.1-0.6,1.6c-0.4,0.4-0.9,0.6-1.6,0.7l2.1,2.8h-0.9L61,31.7l0.8,0c0.3,0,0.6,0,0.8-0.1c0.8-0.2,1.2-0.8,1.2-1.6
	c0-0.7-0.3-1.1-0.8-1.4c-0.2-0.1-0.4-0.2-0.7-0.2c-0.2,0-0.4,0-0.7,0h-1.3V35h-0.7v-7.4h1.9c0.2,0,0.3,0,0.4,0c0.2,0,0.3,0,0.5,0
	c0.4,0,0.7,0.1,0.9,0.2C64.1,28.3,64.5,29,64.5,30z"/>
</svg>
