<?xml version="1.0" encoding="UTF-8"?>
<svg width="18" height="18" viewBox="0 0 18 19" version="1.1" xmlns="http://www.w3.org/2000/svg">
    <path d="M18,7.34375 C16.999995,7.718753 16.5,8.437496 16.5,9.5 C16.5,10.562504 16.999995,11.281247 18,11.65625 C17.749998,12.656255 17.375001,13.546871 16.875,14.328125 C16.624998,14.203124 16.312503,14.140625 15.9375,14.140625 C15.281247,14.140625 14.734377,14.359373 14.296875,14.796875 C13.546872,15.5468789 13.390623,16.4062451 13.828125,17.375 C13.046871,17.8750025 12.156255,18.2499988 11.15625,18.5 C10.781247,17.499995 10.062504,17 9,17 C7.937496,17 7.218753,17.499995 6.84375,18.5 C5.843745,18.2499988 4.953129,17.8750025 4.171875,17.375 C4.609377,16.4062451 4.453128,15.5468789 3.703125,14.796875 C3.265623,14.359373 2.7187533,14.140625 2.0625,14.140625 C1.6874982,14.140625 1.3750011,14.203124 1.125,14.328125 C0.6249975,13.546871 0.2500013,12.656255 0,11.65625 C1.000005,11.281247 1.5,10.562504 1.5,9.5 C1.5,8.437496 1.000005,7.718753 0,7.34375 C0.2500013,6.343745 0.6249975,5.453129 1.125,4.671875 C1.3750011,4.796876 1.6874982,4.859375 2.0625,4.859375 C2.7187533,4.859375 3.265623,4.640627 3.703125,4.203125 C4.453128,3.453122 4.609377,2.593754 4.171875,1.625 C4.953129,1.124999 5.843745,0.750002 6.84375,0.5 C7.218753,1.500005 7.937496,2 9,2 C10.062504,2 10.781247,1.500005 11.15625,0.5 C12.156255,0.750002 13.046871,1.124999 13.828125,1.625 C13.390623,2.593754 13.546872,3.453122 14.296875,4.203125 C14.734377,4.640627 15.281247,4.859375 15.9375,4.859375 C16.312503,4.859375 16.624998,4.796876 16.875,4.671875 C17.375001,5.453129 17.749998,6.343745 18,7.34375 Z M6.375,12.171875 C7.125003,12.89063 8.015619,13.25 9.046875,13.25 C10.078131,13.25 10.960935,12.882815 11.695314,12.148436 C12.42969,11.41406 12.796875,10.531256 12.796875,9.5 C12.796875,8.468744 12.42969,7.58594 11.695314,6.851564 C10.960935,6.117185 10.078131,5.75 9.046875,5.75 C8.015619,5.75 7.132815,6.117185 6.398436,6.851564 C5.66406,7.58594 5.296875,8.468744 5.296875,9.5 C5.296875,10.531256 5.656245,11.421872 6.375,12.171875 Z"
          fill="#141A22"/>
</svg>